<?xml version="1.0" encoding="utf-8"?>
<!-- Generator: Adobe Illustrator 23.0.5, SVG Export Plug-In . SVG Version: 6.00 Build 0)  -->
<svg version="1.2" baseProfile="tiny" id="Layer_1" xmlns="http://www.w3.org/2000/svg" xmlns:xlink="http://www.w3.org/1999/xlink"
	 x="0px" y="0px" viewBox="0 0 1080 1080" xml:space="preserve">
<g>
	<g>
		<path d="M338.8,595c-1.1,0-2.2,0-3.3,0c0,0,0,0,0,0C336.6,595.1,337.7,595,338.8,595z"/>
	</g>
	<g>
		<path fill="#565656" d="M668.2,417.7c0.1,0-0.4-0.2-0.8-0.2c-2.1-0.2-3.5-1.4-4.1-3.3c-0.7-2-0.3-3.9,1.3-5.5
			c5.9-5.8,11.8-11.6,17.6-17.5c0.8-0.8,1.4-1.1,2.4-0.1c11.7,12.2,20.3,26.2,25.2,42.4c0.6,1.9,0.4,2.8-1.8,3.4
			c-7.5,2-14.9,4.2-22.3,6.4c-4.7,1.3-8-1.8-6.9-6.5c0.1-0.5-0.3-1.7-0.7-1.8c-4.5-1.5-5.3-3-4.1-7.6c0.1-0.2,0-0.4,0-0.2
			c-1.8-1.2-4-1.9-4.9-3.4C668.1,422.3,668.4,420,668.2,417.7z"/>
	</g>
	<g>
		<g>
			<path fill="#2B2B2B" d="M704.9,448c-0.4-3.1-1-6.2-1.6-9.5c-4.7,1.4-9,2.6-12.6,3.6c0.3,7.7,0.6,14.9,1,22.2
				c0.1,1.9-0.6,2.5-2.5,2.3c-6.7-0.9-13.5-1.4-20.1-2.7c-9.9-1.9-19.1-5.6-26.8-12.5c-3.4-3.1-7-6-10.9-8.5
				c-10.2-6.6-21.4-8.9-33.3-6.4c-9.4,2-17.2,6.8-24.3,13c-3.3,2.9-6.8,5.8-10.7,8c-12.1,6.8-25.4,8.4-39,9.3
				c-1.5,0.1-1.8-0.8-1.8-1.9c0-3.9-0.1-7.9,0.2-11.8c0.2-3.5,0.8-7,1.3-10.7c-4.5-1.2-8.8-2.4-13.1-3.6
				c-2.2,10.3-2.7,20.6-1.7,30.7c0,0,0,0.1-0.1,0.1c-4.4,12.5-12.1,22.4-23.4,29.5c-10.2,6.4-21.4,9.2-33.4,9
				c-4.9-0.1-9.8-0.1-14.8,0.1c-0.8,0-4.8,0.1-5.8,0.1c0,3.5,0,6.8,0,10.1c0,0.4,0.5,1.1,0.8,1.1c1.1,0.1,4.2,0.4,5.3,0.4
				c7.1,0,14.2,0.1,21.2-0.2c17.6-0.8,32.4-8.1,45-20.2c3.5-3.3,6.3-7.1,8.9-11c1.8,5.9,4.1,11.7,7,17.2c-2.6,3-5.4,5.8-8.4,8.4
				c-13.9,12.1-29.9,19.7-48.5,21c-8.5,0.6-17.1,0.6-25.7,0.9c-0.9,0-1.5-0.1-1.9-0.4c0,0,0,0-0.1,0c-0.6,0-1.1-0.1-1.6-0.2
				c-0.1,0.2-0.3,0.4-0.4,0.4c-1.7,0.1-1.6,1.1-1.6,2.3c0,2.6,0,5.2,0.1,7.8c0,0.6,0.6,1.7,1.1,1.7c0.2,0,0.4,0.1,0.5,0.1
				c0.4-0.1,0.9-0.2,1.5-0.2c0.4,0,0.7,0,1,0.1c1.6,0,3,0,4.4,0c10.5-0.2,21,0.4,31.4-1.5c11.8-2.2,23-6.2,33.3-12.4
				c8.1-4.9,15.1-10.7,21.2-17.5c3.1,4.5,6.6,8.7,10.5,12.7c-7.2,7.6-15.3,14.1-24.5,19.4c-16.7,9.7-34.7,15.2-54.2,15.5
				c-6.9,0.1-13.7,0-20.6,0.2c-0.9,0-4.2,0-4.8,0c-4.6,0-9.2,0-13.9,0c-1.3,0-1.7-0.5-1.7-1.8c0.1-12.6,0.2-25.2,0.3-37.8
				c0-1,0-3.3,0-4.4c0-23.1,0-46.2,0-69.3c0-1.7,0-3,0-4.8c0.1-11.5,0.1-22.9,0.1-34.4c0-3.1,0-3.1-3.2-3.1c-2,0-4,0.1-6,0
				c-2.2-0.1-3,0.5-2.9,2.9c0.1,9.5,0,81.2,0.1,107.7c0,18.2,0.1,36.4,0,54.5c0,2,0.7,2.6,2.6,2.6c8-0.1,29.1-0.1,29.4-0.1
				c6.9,0,13.7,0,20.6-0.1c16.2-0.2,31.8-3.8,46.7-10.1c15.8-6.7,29.3-16.4,41-28.8c10.4,8.4,22.8,14.9,36.9,18.8
				c-0.7,2.8-1.5,5.6-2.2,8.5c18.2,4.5,36,4.6,53.9,0c-0.1-0.8-0.2-1.4-0.3-2c-0.8-2.9-1.7-5.7-2.5-8.6c-0.8-3-1.4-6-2-9
				c0.2,0.2,0.4,0.4,0.4,0.6c0.7,2.7,1.6,5.4,2.1,8.2c0.3,1.7,1.1,2.1,2.6,1.6c0.5-0.2,1-0.3,1.5-0.4c23.1-7.3,41.5-21,54.5-41.4
				C702.8,493.1,707.8,471.4,704.9,448z M590.2,533.7c-2-0.8-2.7,0-3,1.8c-0.2,1.4-0.8,2.7-1,4.1c-0.2,1.7-1.1,2-2.6,1.6
				c-9.5-2.9-18.5-7.1-26.5-13c-13.1-9.6-22.7-22-28.9-37c-0.2-0.5-0.3-1-0.7-2c15.4-1.9,30-1.2,43.2,7.2
				c13.7,8.7,20.2,22.2,23.6,38C592.7,534.2,591.4,534.2,590.2,533.7z M606.8,496c-11.9,0-21.7-10-21.6-21.9
				c0.2-12,9.8-21.5,21.8-21.4c12.1,0.1,21.8,9.9,21.6,21.8C628.4,486.4,618.6,496.1,606.8,496z M684.8,493.4
				c-11,24.2-29.3,40.2-54.8,47.9c-1.9,0.6-0.9,1.8-1.1,2.8c-1-3.5-2-7.1-3-10.8c-2.4,0.5-4.7,1-6.9,1.4c0.4-0.7,0.9-1.4,1-2.1
				c2.4-9.9,6-19.2,12.8-27c10-11.7,23.2-16.6,38.2-17c5-0.2,10.1,0.2,15.6,0.4C685.9,490.9,685.4,492.1,684.8,493.4z"/>
		</g>
		<g>
			<path fill="#2B2B2B" d="M606.8,348.4c22.5-0.1,40.8-18.3,40.8-40.6c-0.1-22.6-18.2-40.8-40.8-40.8c-22.4,0-40.7,18.3-40.6,40.4
				C566.3,330.3,584.4,348.5,606.8,348.4z"/>
		</g>
		<g>
			<path fill="#2B2B2B" d="M349,363.8c0,1.6,0.6,2.1,2,2.1c2.5,0,5.1,0,7.6,0c0.5,0,0.9,0,1.2,0.2c0.4-0.1,0.8-0.2,1.3-0.2
				c0-8.4,0-16.9-0.1-25.3c0-2.3,0.7-2.9,2.9-2.8c7.5,0.1,15,0,22.6,0.1c1.9,0,2.9-0.5,2.7-2.6c-0.1-2.4-0.1-4.8,0.1-7.1
				c0.1-1.7-0.5-2.3-2.3-2.3c-7.4,0.1-14.8,0.1-22.1,0.1c-4.6,0-9.2,0.1-13.8,0c-1.5,0-2,0.4-2,2C349.1,339.8,349.1,351.8,349,363.8
				z"/>
		</g>
		<g>
			<path fill="#2B2B2B" d="M378.5,490.3c0,2.9,0,2.9,3,2.9c2.3,0,4.6-0.1,6.9,0.1c1.8,0.1,2.3-0.5,2.2-2.3
				c-0.1-13.2-0.1-26.4-0.2-39.6c0-1.5,0-4.8,0-6.4c0-11.5,0-23,0.1-34.4c0-1.9-0.4-2.7-2.4-2.5c-2.2,0.2-4.5,0.1-6.7-0.1
				c-2.2-0.2-3,0.5-3,2.8c0.1,11.3,0.1,22.7,0.1,34c0,1.3,0.1,5.4,0.1,6.4C378.5,464.2,378.5,477.2,378.5,490.3z"/>
		</g>
		<g>
			<path fill="#2B2B2B" d="M405,363.3c0,2,0.7,2.7,2.5,2.6c2.4-0.1,4.8-0.1,7.1-0.1c1.7,0,2.3-0.6,2.3-2.4c0-7.5,0-15,0.1-22.6
				c0-3.1,0-3.1,3.1-3.1c3.9-0.1,45.2-0.6,59.4,2.7c9.9,2.3,19.3,5.9,28.3,10.6c10.3,5.5,19.4,12.5,27.5,20.7
				c3.4,3.5,6.6,7.2,9.5,11c-1.4,1.1-2.8,2.3-4.1,3.5c3.3,3.5,6.4,6.8,9.5,10.1c32.3-29.1,81.2-28.4,113.3,0.1c3-3,5.9-5.8,8.8-8.7
				c0.3-0.3,0.5-0.7,1-1.2c-20.7-18.1-44.5-26.9-71.8-25.4c-17.3,0.9-33,6-46.9,14.7c-0.3-0.4-0.6-0.8-0.9-1.2
				c1-0.1-1.1-1.2-2.4-2.8c-9.9-12.2-21.7-22.2-35.4-30c-2-1.1-9.6-4.8-10-5c-17-8-35.1-11.1-53.8-11.1c-5.1,0-10.3-0.1-15.4,0
				c-1,0-4.3,0-5.5,0c-7.8-0.1-15.6,0-23.5-0.1c-2.1,0-2.8,0.6-2.8,2.8C405.1,340,405,351.7,405,363.3z"/>
		</g>
		<g>
			<path fill="#2B2B2B" d="M349,515.7c0,1.2,0,2.4,0,3.8c1,0.1,1.8,0.3,2.7,0.3c11.5,0,23.1,0,34.6,0.1c2.1,0,3.1-0.5,2.9-2.9
				c-0.2-2.1-0.1-4.3,0-6.5c0.1-2.1-0.5-2.8-2.7-2.8c-7.5,0.2-15.1,0.1-22.6,0.1c-2.9,0-3,0-2.9-2.9c0-18,0.1-35.9,0.1-53.9
				c0-0.9,0-4.7,0-5.5c0.1-16.5,0.1-33.1,0-49.6c0-1.8,0.6-2.2,2.3-2.2c22.7,0,45.5-0.1,68.2,0c5,0,10.1-0.2,15.1,0
				c5.1,0.2,10.3,0,15.4,0.6c13.2,1.4,24.3,7.3,33.5,16.7c4.7,4.8,8.6,10.2,11.2,16.4c3.2-3.2,6.4-6.3,9.6-9.4c-1-0.3-1.5-1-2.1-2
				c-9.3-15.3-22.3-25.9-39.5-31.3c-7.9-2.5-16-3.2-24.3-3c-4.7,0.1-9.4,0-14.1,0.1c-0.5,0-0.9,0-1.2-0.1c-0.4,0.1-0.8,0.1-1.2,0.1
				c-0.4,0-0.8,0-1.1-0.1c-0.3,0.1-0.6,0.1-0.9,0.1c-3.8,0-7.6,0-11.4,0c-18.8,0-37.7-0.1-56.5-0.1c-4.3,0-8.6,0-12.9-0.1
				c-1.8,0-2.3,0.6-2.2,2.3c0.1,20.4,0,40.8,0,61.2c0,0.8,0.1,5.2,0.1,6C349,472.6,349,494.2,349,515.7z"/>
		</g>
		<g>
			<path fill="#2B2B2B" d="M433.3,366.1c0.1,0,0.1,0,0.2,0.1c0.2,0,0.3,0,0.5,0c0.4,0,0.8,0,1.1,0.1c0.4-0.3,1.2-0.3,2.6-0.3
				c8.6,0.2,17.2-0.1,25.7,0.7c16.1,1.4,30.5,7.3,43.4,17.2c6.9,5.3,12.8,11.5,17.8,18.6c0.3,0.4,0.9,1,1.4,1c4.2,0.1,8.4,0,13.3,0
				c-4.6-7.2-9.1-13.5-14.5-19.2c-12.5-13.1-27.5-22.3-45-26.9c-7.8-2.1-15.7-3.3-23.8-3.2c-6,0-11.9,0.1-17.9,0.1
				c-1.1,0-1.8,0-2.3-0.1c-0.4,0.1-0.9,0.2-1.3,0.2c-0.4,0-0.8,0-1.2-0.1c-0.1,0.1-0.3,0.1-0.5,0.2c-0.5,0.1-1.2,1-1.2,1.6
				c-0.1,2.4,0,4.8-0.1,7.1C431.4,364.4,431.1,365.9,433.3,366.1z"/>
		</g>
		<g>
			<path fill="#2B2B2B" d="M387,563.6c-7.6,0.1-15.2,0-22.8,0c-3.1,0-3.1,0-3.2-3.2c-0.1-8.4-0.1-16.8-0.2-25.2
				c-0.4,0-0.8,0-1.2-0.1c-0.3,0.2-0.8,0.3-1.4,0.3c-2.5,0-4.9,0.1-7.4,0.1c-1.3,0-1.8,0.4-1.8,1.8c0,12.1,0,24.3-0.1,36.4
				c0,1.9,1.2,1.8,2.4,1.8c10.1,0.1,20.2,0.1,30.4,0.2c1.9,0,3.7,0,5.6,0c1.2,0,1.9-0.5,1.8-1.9c-0.1-2.7-0.1-5.4,0.1-8
				C389.3,564,388.7,563.6,387,563.6z"/>
		</g>
		<g>
			<path fill="#2B2B2B" d="M388.9,534.1c-2.8,0.1-5.6,0-8.5,0c-1.4,0-1.8,0.5-1.8,1.8c0,2.1,0,4.2,0,6.2c0,6.4-0.7,5.4,5.4,5.5
				c6.6,0,6.6,0,6.7-6.7c0-1.6,0-3.3,0-4.9C390.7,534.7,390.3,534,388.9,534.1z"/>
		</g>
		<g>
			<path fill="#2B2B2B" d="M380.3,354c-1.3,0-1.7,0.5-1.7,1.7c0,2.1,0,4.2,0,6.2c0,5.4,0,5.4,5.3,5.4c2.1,0,5,0.6,6.1-0.5
				c1.1-1.2,0.6-4,0.7-6.2c0,0-0.1,0-0.1,0c0-1.6,0-3.3,0-4.9c0-1.2-0.4-1.8-1.7-1.8C386.1,354.1,383.2,354.1,380.3,354z"/>
		</g>
	</g>
	<g>
		<path fill="#565656" d="M635.7,564c-7.2,1.9-17,3.7-28.9,3.7c-11.6,0-21.3-1.8-28.4-3.7c2.8-10.2,5.7-20.5,8.5-30.7l40.2-0.5
			L635.7,564z"/>
	</g>
	<g>
		<path fill="#565656" d="M534.4,429.7c1,4.6,0.4,6.6-2.5,8c-0.8,0.4-1.9,0.7-2.8,0.5c-8.6-2.4-17.1-5-26.1-7.6
			c0.9-2.7,1.7-5.6,2.7-8.3c5.2-13.5,12.6-25.6,22.7-36c1.5-1.6,2.3-1.4,3.7,0c5.3,5.4,10.8,10.7,16.1,16.1c3.9,3.9,2.8,8-2.5,9.7
			c-0.5,0.1-1,1.2-0.9,1.7c0.9,3.8-0.1,5.6-4,6.8c-0.9,0.3-1.6,0.5-1.2,1.8c1.2,3.9-0.3,6.2-4.4,7
			C535.1,429.5,534.9,429.6,534.4,429.7z"/>
	</g>
	<g>
		<path fill="#2B2B2B" d="M185,624h28.3c5.6,0,10.1,0.8,13.5,2.3c3.4,1.5,6.3,3.7,8.5,6.5c2.2,2.8,3.9,6.1,4.9,9.9
			c1,3.8,1.5,7.7,1.5,11.9c0,6.6-0.7,11.7-2.2,15.3c-1.5,3.6-3.6,6.7-6.2,9.1c-2.7,2.5-5.5,4.1-8.6,4.9c-4.2,1.1-8,1.7-11.3,1.7H185
			V624z M204,637.9v33.6h4.7c4,0,6.8-0.4,8.5-1.3c1.7-0.9,3-2.4,3.9-4.6c1-2.2,1.4-5.8,1.4-10.7c0-6.5-1.1-11-3.2-13.4
			c-2.1-2.4-5.7-3.6-10.6-3.6H204z"/>
		<path fill="#2B2B2B" d="M251.9,685.5V624h31.7c5.9,0,10.4,0.5,13.5,1.5s5.6,2.9,7.5,5.6c1.9,2.7,2.9,6.1,2.9,10
			c0,3.4-0.7,6.4-2.2,8.8c-1.5,2.5-3.5,4.5-6,6c-1.6,1-3.9,1.8-6.7,2.4c2.3,0.8,3.9,1.5,5,2.3c0.7,0.5,1.7,1.6,3,3.2
			s2.2,2.9,2.7,3.8l9.2,17.8H291l-10.2-18.8c-1.3-2.4-2.4-4-3.4-4.7c-1.4-1-2.9-1.4-4.7-1.4H271v25H251.9z M271,648.9h8
			c0.9,0,2.5-0.3,5-0.8c1.3-0.3,2.3-0.9,3.1-1.9c0.8-1,1.2-2.2,1.2-3.6c0-2-0.6-3.5-1.9-4.6c-1.3-1.1-3.6-1.6-7.1-1.6H271V648.9z"/>
		<path fill="#2B2B2B" d="M319.3,624h19.1v61.6h-19.1V624z"/>
		<path fill="#2B2B2B" d="M346,624h19.9l13.9,44.3l13.7-44.3h19.3l-22.9,61.6h-20.6L346,624z"/>
		<path fill="#2B2B2B" d="M418.9,624h51v13.1h-31.9v9.8h29.6v12.6h-29.6v12.1h32.8v13.9h-51.9V624z"/>
		<path fill="#2B2B2B" d="M481.3,685.5V624H513c5.9,0,10.4,0.5,13.5,1.5c3.1,1,5.6,2.9,7.5,5.6c1.9,2.7,2.9,6.1,2.9,10
			c0,3.4-0.7,6.4-2.2,8.8c-1.5,2.5-3.5,4.5-6,6c-1.6,1-3.9,1.8-6.7,2.4c2.3,0.8,3.9,1.5,5,2.3c0.7,0.5,1.7,1.6,3,3.2
			c1.3,1.7,2.2,2.9,2.7,3.8l9.2,17.8h-21.5l-10.2-18.8c-1.3-2.4-2.4-4-3.4-4.7c-1.4-1-2.9-1.4-4.7-1.4h-1.7v25H481.3z M500.4,648.9
			h8c0.9,0,2.5-0.3,5-0.8c1.3-0.3,2.3-0.9,3.1-1.9c0.8-1,1.2-2.2,1.2-3.6c0-2-0.6-3.5-1.9-4.6c-1.3-1.1-3.6-1.6-7.1-1.6h-8.4V648.9z
			"/>
		<path fill="#2B2B2B" d="M544.6,665.2l18.1-1.1c0.4,2.9,1.2,5.2,2.4,6.7c2,2.5,4.8,3.7,8.4,3.7c2.7,0,4.8-0.6,6.3-1.9
			c1.5-1.3,2.2-2.8,2.2-4.4c0-1.6-0.7-3-2.1-4.3c-1.4-1.3-4.6-2.4-9.7-3.6c-8.3-1.9-14.3-4.4-17.8-7.5c-3.6-3.1-5.4-7.1-5.4-11.9
			c0-3.2,0.9-6.2,2.8-9c1.8-2.8,4.6-5,8.3-6.6c3.7-1.6,8.7-2.4,15.1-2.4c7.9,0,13.9,1.5,18,4.4c4.1,2.9,6.6,7.6,7.4,14l-17.9,1
			c-0.5-2.8-1.5-4.8-3-6c-1.5-1.3-3.6-1.9-6.3-1.9c-2.2,0-3.9,0.5-5,1.4c-1.1,0.9-1.7,2.1-1.7,3.4c0,1,0.5,1.9,1.4,2.6
			c0.9,0.8,3,1.6,6.4,2.3c8.3,1.8,14.3,3.6,17.9,5.4c3.6,1.8,6.2,4.1,7.9,6.8c1.6,2.7,2.5,5.8,2.5,9.1c0,3.9-1.1,7.6-3.3,10.9
			c-2.2,3.3-5.2,5.9-9.2,7.6c-3.9,1.7-8.9,2.6-14.8,2.6c-10.5,0-17.7-2-21.8-6S545.1,671.4,544.6,665.2z"/>
		<path fill="#2B2B2B" d="M639,624h28.3c5.6,0,10.1,0.8,13.5,2.3c3.4,1.5,6.3,3.7,8.5,6.5c2.2,2.8,3.9,6.1,4.9,9.9
			c1,3.8,1.5,7.7,1.5,11.9c0,6.6-0.7,11.7-2.2,15.3c-1.5,3.6-3.6,6.7-6.2,9.1c-2.7,2.5-5.5,4.1-8.6,4.9c-4.2,1.1-8,1.7-11.3,1.7H639
			V624z M658,637.9v33.6h4.7c4,0,6.8-0.4,8.5-1.3c1.7-0.9,3-2.4,3.9-4.6c1-2.2,1.4-5.8,1.4-10.7c0-6.5-1.1-11-3.2-13.4
			c-2.1-2.4-5.7-3.6-10.6-3.6H658z"/>
		<path fill="#2B2B2B" d="M705.6,624h51v13.1h-31.9v9.8h29.6v12.6h-29.6v12.1h32.8v13.9h-51.9V624z"/>
		<path fill="#2B2B2B" d="M808.7,660.3l16.7,5c-1.1,4.7-2.9,8.6-5.3,11.7c-2.4,3.1-5.4,5.5-9,7.1c-3.6,1.6-8.1,2.4-13.6,2.4
			c-6.7,0-12.2-1-16.4-2.9c-4.2-1.9-7.9-5.4-11-10.3c-3.1-4.9-4.6-11.2-4.6-18.8c0-10.2,2.7-18,8.1-23.5c5.4-5.5,13.1-8.2,23-8.2
			c7.8,0,13.9,1.6,18.3,4.7c4.4,3.1,7.7,8,9.9,14.4l-16.8,3.7c-0.6-1.9-1.2-3.2-1.8-4.1c-1.1-1.5-2.4-2.6-3.9-3.4
			c-1.5-0.8-3.3-1.2-5.2-1.2c-4.3,0-7.6,1.7-9.9,5.2c-1.7,2.6-2.6,6.6-2.6,12.1c0,6.8,1,11.5,3.1,14c2.1,2.5,5,3.8,8.7,3.8
			c3.6,0,6.4-1,8.3-3.1C806.5,667.2,807.9,664.2,808.7,660.3z"/>
		<path fill="#2B2B2B" d="M834.7,624h19v23.3l19.9-23.3h25.3l-22.5,23.2l23.5,38.3h-23.4l-13-25.3l-9.8,10.3v15h-19V624z"/>
		<path fill="#2B2B2B" d="M209.5,742.7l8.5,2.7c-1.3,4.8-3.5,8.3-6.5,10.6c-3,2.3-6.9,3.5-11.6,3.5c-5.8,0-10.6-2-14.3-5.9
			c-3.7-4-5.6-9.4-5.6-16.2c0-7.3,1.9-12.9,5.6-16.9c3.8-4,8.7-6,14.8-6c5.3,0,9.7,1.6,13,4.7c2,1.9,3.5,4.5,4.5,8l-8.7,2.1
			c-0.5-2.3-1.6-4.1-3.2-5.4c-1.6-1.3-3.6-2-6-2c-3.2,0-5.9,1.2-7.9,3.5c-2,2.3-3,6.1-3,11.3c0,5.5,1,9.5,3,11.8
			c2,2.3,4.6,3.5,7.7,3.5c2.3,0,4.4-0.7,6-2.2C207.6,748.2,208.8,745.9,209.5,742.7z"/>
		<path fill="#2B2B2B" d="M223.9,737.2c0-4.4,0.7-8.2,2-11.2c1-2.2,2.3-4.2,4.1-6c1.7-1.8,3.6-3.1,5.6-3.9c2.7-1.2,5.9-1.7,9.4-1.7
			c6.4,0,11.6,2,15.4,6c3.9,4,5.8,9.5,5.8,16.6c0,7-1.9,12.6-5.7,16.5c-3.8,4-9,6-15.4,6c-6.5,0-11.7-2-15.5-5.9
			C225.8,749.6,223.9,744.1,223.9,737.2z M233,736.9c0,4.9,1.1,8.7,3.4,11.2c2.3,2.6,5.2,3.8,8.7,3.8c3.5,0,6.4-1.3,8.7-3.8
			c2.3-2.5,3.4-6.3,3.4-11.4c0-5-1.1-8.7-3.3-11.2s-5.1-3.7-8.7-3.7c-3.6,0-6.6,1.2-8.8,3.7C234.1,728.1,233,731.9,233,736.9z"/>
		<path fill="#2B2B2B" d="M273.2,758.7v-43.7h8.6l17.9,29.2v-29.2h8.2v43.7H299l-17.6-28.5v28.5H273.2z"/>
		<path fill="#2B2B2B" d="M314.9,744.5l8.6-0.8c0.5,2.9,1.6,5,3.1,6.3c1.6,1.4,3.7,2,6.4,2c2.8,0,5-0.6,6.4-1.8
			c1.4-1.2,2.2-2.6,2.2-4.2c0-1-0.3-1.9-0.9-2.6s-1.7-1.4-3.2-1.9c-1-0.4-3.4-1-7.1-1.9c-4.7-1.2-8-2.6-9.9-4.3
			c-2.7-2.4-4-5.3-4-8.8c0-2.2,0.6-4.3,1.9-6.2c1.3-1.9,3.1-3.4,5.5-4.4c2.4-1,5.2-1.5,8.6-1.5c5.5,0,9.6,1.2,12.4,3.6
			c2.8,2.4,4.2,5.6,4.4,9.6l-8.8,0.4c-0.4-2.2-1.2-3.9-2.4-4.8c-1.2-1-3.1-1.5-5.6-1.5c-2.6,0-4.6,0.5-6,1.6
			c-0.9,0.7-1.4,1.6-1.4,2.7c0,1,0.4,1.9,1.3,2.7c1.1,0.9,3.8,1.9,8.1,2.9c4.3,1,7.5,2.1,9.5,3.1c2.1,1.1,3.7,2.6,4.8,4.4
			c1.2,1.9,1.7,4.2,1.7,7c0,2.5-0.7,4.8-2.1,7c-1.4,2.2-3.4,3.8-5.9,4.9c-2.5,1.1-5.7,1.6-9.5,1.6c-5.5,0-9.8-1.3-12.7-3.8
			C317.3,753.1,315.5,749.4,314.9,744.5z"/>
		<path fill="#2B2B2B" d="M357.8,715.1h8.8v23.6c0,3.8,0.1,6.2,0.3,7.3c0.4,1.8,1.3,3.2,2.7,4.3c1.4,1.1,3.4,1.6,5.8,1.6
			c2.5,0,4.4-0.5,5.7-1.5c1.3-1,2-2.3,2.3-3.8c0.3-1.5,0.4-4,0.4-7.4v-24.2h8.8V738c0,5.2-0.2,8.9-0.7,11.1c-0.5,2.2-1.4,4-2.6,5.5
			c-1.3,1.5-3,2.7-5.1,3.6c-2.1,0.9-4.9,1.3-8.4,1.3c-4.2,0-7.3-0.5-9.5-1.4s-3.9-2.2-5.1-3.8c-1.3-1.5-2.1-3.2-2.5-4.8
			c-0.6-2.5-0.9-6.2-0.9-11.1V715.1z"/>
		<path fill="#2B2B2B" d="M402.1,758.7v-43.3h8.8v36h21.9v7.4H402.1z"/>
		<path fill="#2B2B2B" d="M444.5,758.7v-36.3h-13v-7.4h34.7v7.4h-12.9v36.3H444.5z"/>
		<path fill="#2B2B2B" d="M506.7,758.7h-9.6l-3.8-9.9h-17.5l-3.6,9.9h-9.4l17-43.7h9.3L506.7,758.7z M490.5,741.5l-6-16.2l-5.9,16.2
			H490.5z"/>
		<path fill="#2B2B2B" d="M511.5,758.7v-43.7h8.6l17.9,29.2v-29.2h8.2v43.7h-8.8l-17.6-28.5v28.5H511.5z"/>
		<path fill="#2B2B2B" d="M583.4,742.7l8.5,2.7c-1.3,4.8-3.5,8.3-6.5,10.6c-3,2.3-6.9,3.5-11.6,3.5c-5.8,0-10.6-2-14.3-5.9
			c-3.7-4-5.6-9.4-5.6-16.2c0-7.3,1.9-12.9,5.6-16.9c3.8-4,8.7-6,14.8-6c5.3,0,9.7,1.6,13,4.7c2,1.9,3.5,4.5,4.5,8l-8.7,2.1
			c-0.5-2.3-1.6-4.1-3.2-5.4c-1.6-1.3-3.6-2-6-2c-3.2,0-5.9,1.2-7.9,3.5c-2,2.3-3,6.1-3,11.3c0,5.5,1,9.5,3,11.8s4.6,3.5,7.7,3.5
			c2.3,0,4.4-0.7,6-2.2C581.5,748.2,582.7,745.9,583.4,742.7z"/>
		<path fill="#2B2B2B" d="M611,758.7v-18.4l-16-25.3h10.3l10.3,17.3l10.1-17.3h10.2l-16.1,25.3v18.3H611z"/>
		<path fill="#2B2B2B" d="M656.1,758.7v-43.7h14.1c5.4,0,8.9,0.2,10.5,0.7c2.5,0.7,4.6,2.1,6.3,4.3c1.7,2.2,2.5,5,2.5,8.5
			c0,2.7-0.5,4.9-1.5,6.8c-1,1.8-2.2,3.3-3.7,4.3c-1.5,1-3,1.7-4.6,2.1c-2.1,0.4-5.2,0.6-9.1,0.6h-5.7v16.5H656.1z M664.9,722.5
			v12.4h4.8c3.5,0,5.8-0.2,7-0.7c1.2-0.5,2.1-1.2,2.8-2.1c0.7-1,1-2.1,1-3.4c0-1.6-0.5-2.9-1.4-3.9c-0.9-1-2.1-1.7-3.5-1.9
			c-1.1-0.2-3.2-0.3-6.3-0.3H664.9z"/>
		<path fill="#2B2B2B" d="M707.9,758.7l-15.6-43.7h9.6l11.1,32.3l10.7-32.3h9.4l-15.6,43.7H707.9z"/>
		<path fill="#2B2B2B" d="M747.3,758.7v-36.3h-13v-7.4H769v7.4h-12.9v36.3H747.3z"/>
		<path fill="#2B2B2B" d="M791.9,758.7v-43.3h8.8v36h21.9v7.4H791.9z"/>
		<path fill="#2B2B2B" d="M834.2,758.7v-36.3h-13v-7.4h34.7v7.4H843v36.3H834.2z"/>
		<path fill="#2B2B2B" d="M861.6,715.1h16.1c3.6,0,6.4,0.3,8.3,0.8c2.6,0.8,4.8,2.1,6.6,4c1.8,1.9,3.2,4.3,4.2,7.1
			c1,2.8,1.4,6.2,1.4,10.3c0,3.6-0.4,6.7-1.3,9.3c-1.1,3.2-2.7,5.7-4.7,7.7c-1.5,1.5-3.6,2.7-6.2,3.5c-1.9,0.6-4.5,0.9-7.8,0.9
			h-16.6V715.1z M870.4,722.5v28.9h6.6c2.5,0,4.2-0.1,5.3-0.4c1.4-0.4,2.6-1,3.6-1.8c0.9-0.9,1.7-2.3,2.3-4.2c0.6-2,0.9-4.6,0.9-8
			s-0.3-6-0.9-7.8c-0.6-1.8-1.4-3.2-2.5-4.2c-1.1-1-2.4-1.7-4.1-2.1c-1.2-0.3-3.6-0.4-7.2-0.4H870.4z"/>
	</g>
	<g>
		<path fill="#565656" d="M282.3,804.9c-1-0.5-1.8-1.1-2.4-1.9c-0.6-0.8-0.9-1.8-0.9-2.8h2.7c0.1,0.9,0.5,1.7,1.1,2.3
			c0.7,0.6,1.6,0.9,2.9,0.9c1.2,0,2.2-0.3,2.9-0.9s1-1.4,1-2.3c0-0.7-0.2-1.4-0.6-1.8c-0.4-0.5-0.9-0.8-1.5-1.1
			c-0.6-0.2-1.4-0.5-2.5-0.8c-1.3-0.3-2.3-0.7-3.1-1c-0.8-0.3-1.4-0.9-2-1.6c-0.6-0.7-0.8-1.7-0.8-2.9c0-1.1,0.3-2,0.8-2.8
			c0.5-0.8,1.3-1.5,2.3-1.9c1-0.4,2.1-0.7,3.4-0.7c1.8,0,3.3,0.5,4.5,1.4c1.2,0.9,1.8,2.1,2,3.6h-2.8c-0.1-0.7-0.5-1.4-1.2-2
			c-0.7-0.6-1.6-0.9-2.7-0.9c-1.1,0-1.9,0.3-2.6,0.8s-1,1.3-1,2.3c0,0.7,0.2,1.3,0.6,1.7s0.9,0.8,1.5,1c0.6,0.2,1.4,0.5,2.5,0.8
			c1.3,0.4,2.3,0.7,3.1,1c0.8,0.3,1.5,0.9,2,1.6s0.8,1.7,0.8,2.9c0,1-0.3,1.8-0.8,2.7s-1.3,1.5-2.2,2s-2.2,0.8-3.5,0.8
			C284.4,805.6,283.3,805.4,282.3,804.9z"/>
		<path fill="#565656" d="M296,793.5c0.6-1.2,1.5-2.1,2.6-2.8c1.1-0.7,2.3-1,3.7-1c1.3,0,2.5,0.3,3.5,0.9c1,0.6,1.7,1.3,2.2,2.2V790
			h2.6v15.3H308v-2.9c-0.5,0.9-1.3,1.6-2.3,2.2c-1,0.6-2.2,0.9-3.5,0.9c-1.4,0-2.6-0.3-3.7-1s-2-1.6-2.6-2.8c-0.6-1.2-1-2.6-1-4.1
			C295,796.1,295.3,794.7,296,793.5z M307.3,794.7c-0.5-0.9-1.1-1.5-1.9-2c-0.8-0.5-1.7-0.7-2.6-0.7s-1.8,0.2-2.6,0.7
			s-1.4,1.1-1.9,2s-0.7,1.9-0.7,3c0,1.2,0.2,2.2,0.7,3.1s1.1,1.5,1.9,2s1.7,0.7,2.6,0.7s1.8-0.2,2.6-0.7c0.8-0.5,1.4-1.1,1.9-2
			c0.5-0.9,0.7-1.9,0.7-3C308,796.5,307.8,795.5,307.3,794.7z"/>
		<path fill="#565656" d="M321.1,792.1h-3.2v13.2h-2.5v-13.2h-2V790h2V789c0-1.7,0.4-3,1.3-3.8c0.9-0.8,2.3-1.2,4.3-1.2v2.1
			c-1.1,0-1.9,0.2-2.4,0.7c-0.5,0.4-0.7,1.2-0.7,2.2v1.1h3.2V792.1z"/>
		<path fill="#565656" d="M338,798.7h-12.3c0.1,1.5,0.6,2.7,1.6,3.5c0.9,0.8,2.1,1.3,3.4,1.3c1.1,0,2-0.3,2.8-0.8s1.3-1.2,1.6-2.1
			h2.7c-0.4,1.5-1.2,2.7-2.5,3.6c-1.2,0.9-2.8,1.4-4.6,1.4c-1.5,0-2.8-0.3-3.9-1c-1.1-0.7-2-1.6-2.7-2.8s-1-2.6-1-4.2
			c0-1.6,0.3-3,1-4.2c0.6-1.2,1.5-2.1,2.7-2.8c1.1-0.6,2.5-1,4-1c1.5,0,2.7,0.3,3.9,1s2,1.5,2.6,2.6c0.6,1.1,0.9,2.4,0.9,3.8
			C338.1,797.6,338.1,798.1,338,798.7z M334.8,794.1c-0.4-0.7-1-1.2-1.8-1.6c-0.7-0.4-1.6-0.5-2.5-0.5c-1.3,0-2.4,0.4-3.3,1.2
			s-1.4,2-1.6,3.4h9.7C335.5,795.6,335.3,794.8,334.8,794.1z"/>
		<path fill="#565656" d="M348.9,793.5c0.6-1.2,1.5-2.1,2.6-2.8c1.1-0.7,2.4-1,3.7-1c1.2,0,2.3,0.3,3.3,0.8s1.8,1.3,2.4,2.2v-8.1
			h2.6v20.7H361v-2.9c-0.5,0.9-1.3,1.7-2.2,2.3s-2.1,0.9-3.5,0.9c-1.4,0-2.6-0.3-3.7-1c-1.1-0.7-2-1.6-2.6-2.8c-0.6-1.2-1-2.6-1-4.1
			C348,796.1,348.3,794.7,348.9,793.5z M360.3,794.7c-0.5-0.9-1.1-1.5-1.9-2c-0.8-0.5-1.7-0.7-2.6-0.7s-1.8,0.2-2.6,0.7
			s-1.4,1.1-1.9,2s-0.7,1.9-0.7,3c0,1.2,0.2,2.2,0.7,3.1s1.1,1.5,1.9,2s1.7,0.7,2.6,0.7s1.8-0.2,2.6-0.7c0.8-0.5,1.4-1.1,1.9-2
			c0.5-0.9,0.7-1.9,0.7-3C361,796.5,360.7,795.5,360.3,794.7z"/>
		<path fill="#565656" d="M372.3,790.5c0.8-0.5,1.8-0.7,3-0.7v2.6h-0.7c-2.9,0-4.3,1.5-4.3,4.6v8.3h-2.5V790h2.5v2.5
			C370.9,791.7,371.5,791,372.3,790.5z"/>
		<path fill="#565656" d="M378.4,787.1c-0.3-0.3-0.5-0.7-0.5-1.2c0-0.5,0.2-0.9,0.5-1.2s0.7-0.5,1.2-0.5c0.5,0,0.9,0.2,1.2,0.5
			c0.3,0.3,0.5,0.7,0.5,1.2c0,0.5-0.2,0.9-0.5,1.2c-0.3,0.3-0.7,0.5-1.2,0.5C379.1,787.6,378.7,787.4,378.4,787.1z M380.9,790v15.3
			h-2.5V790H380.9z"/>
		<path fill="#565656" d="M390.9,803l4.8-13h2.7l-6,15.3h-3l-6-15.3h2.7L390.9,803z"/>
		<path fill="#565656" d="M401,787.1c-0.3-0.3-0.5-0.7-0.5-1.2c0-0.5,0.2-0.9,0.5-1.2s0.7-0.5,1.2-0.5c0.5,0,0.9,0.2,1.2,0.5
			c0.3,0.3,0.5,0.7,0.5,1.2c0,0.5-0.2,0.9-0.5,1.2c-0.3,0.3-0.7,0.5-1.2,0.5C401.7,787.6,401.3,787.4,401,787.1z M403.5,790v15.3
			h-2.5V790H403.5z"/>
		<path fill="#565656" d="M419.8,791.5c1.2,1.1,1.7,2.8,1.7,4.9v9H419v-8.7c0-1.5-0.4-2.7-1.1-3.5c-0.8-0.8-1.8-1.2-3.1-1.2
			c-1.3,0-2.4,0.4-3.2,1.3c-0.8,0.8-1.2,2.1-1.2,3.7v8.5h-2.5V790h2.5v2.2c0.5-0.8,1.2-1.4,2.1-1.8c0.9-0.4,1.8-0.6,2.9-0.6
			C417.1,789.8,418.6,790.3,419.8,791.5z"/>
		<path fill="#565656" d="M435.5,790.7c1,0.6,1.7,1.3,2.2,2.2V790h2.6v15.7c0,1.4-0.3,2.6-0.9,3.7s-1.5,1.9-2.6,2.6
			c-1.1,0.6-2.4,0.9-3.9,0.9c-2,0-3.7-0.5-5-1.4c-1.3-1-2.1-2.2-2.4-3.9h2.5c0.3,0.9,0.9,1.7,1.7,2.3c0.9,0.6,1.9,0.9,3.2,0.9
			c1.4,0,2.5-0.4,3.4-1.3c0.9-0.9,1.3-2.1,1.3-3.7v-3.2c-0.5,0.9-1.3,1.6-2.2,2.2s-2.1,0.9-3.5,0.9c-1.4,0-2.6-0.3-3.7-1
			c-1.1-0.7-2-1.6-2.6-2.8c-0.6-1.2-1-2.6-1-4.1c0-1.6,0.3-2.9,1-4.1c0.6-1.2,1.5-2.1,2.6-2.8c1.1-0.7,2.3-1,3.7-1
			C433.4,789.8,434.5,790.1,435.5,790.7z M437.1,794.7c-0.5-0.9-1.1-1.5-1.9-2c-0.8-0.5-1.7-0.7-2.6-0.7s-1.8,0.2-2.6,0.7
			s-1.4,1.1-1.9,2s-0.7,1.9-0.7,3c0,1.2,0.2,2.2,0.7,3.1s1.1,1.5,1.9,2s1.7,0.7,2.6,0.7s1.8-0.2,2.6-0.7c0.8-0.5,1.4-1.1,1.9-2
			c0.5-0.9,0.7-1.9,0.7-3C437.8,796.5,437.5,795.5,437.1,794.7z"/>
		<path fill="#565656" d="M454.4,805c-0.9-0.4-1.7-1-2.2-1.7c-0.5-0.7-0.8-1.5-0.9-2.5h2.6c0.1,0.8,0.4,1.4,1.1,1.9
			c0.6,0.5,1.5,0.7,2.5,0.7c1,0,1.7-0.2,2.3-0.6c0.6-0.4,0.8-1,0.8-1.6c0-0.7-0.3-1.2-0.9-1.5c-0.6-0.3-1.5-0.6-2.8-1
			c-1.1-0.3-2.1-0.6-2.8-0.9c-0.7-0.3-1.3-0.8-1.8-1.4c-0.5-0.6-0.8-1.4-0.8-2.4c0-0.8,0.2-1.5,0.7-2.2c0.5-0.7,1.1-1.2,2-1.6
			c0.9-0.4,1.8-0.6,2.9-0.6c1.7,0,3.1,0.4,4.1,1.3c1,0.9,1.6,2,1.7,3.5h-2.5c-0.1-0.8-0.4-1.4-1-1.9s-1.4-0.7-2.4-0.7
			c-0.9,0-1.6,0.2-2.2,0.6c-0.5,0.4-0.8,0.9-0.8,1.5c0,0.5,0.2,0.9,0.5,1.2c0.3,0.3,0.7,0.6,1.2,0.8c0.5,0.2,1.2,0.4,2.1,0.7
			c1.1,0.3,2,0.6,2.7,0.9c0.7,0.3,1.3,0.7,1.8,1.3c0.5,0.6,0.8,1.3,0.8,2.3c0,0.8-0.2,1.6-0.7,2.3c-0.5,0.7-1.1,1.2-2,1.6
			c-0.8,0.4-1.8,0.6-2.9,0.6C456.4,805.6,455.3,805.4,454.4,805z"/>
		<path fill="#565656" d="M469.8,792.1v9c0,0.7,0.2,1.3,0.5,1.6c0.3,0.3,0.9,0.5,1.7,0.5h1.9v2.2h-2.3c-1.4,0-2.5-0.3-3.2-1
			c-0.7-0.7-1.1-1.7-1.1-3.2v-9h-2V790h2v-3.9h2.5v3.9h4v2.1H469.8z"/>
		<path fill="#565656" d="M476.9,793.5c0.6-1.2,1.5-2.1,2.6-2.8c1.1-0.7,2.3-1,3.7-1c1.3,0,2.5,0.3,3.5,0.9c1,0.6,1.7,1.3,2.2,2.2
			V790h2.6v15.3H489v-2.9c-0.5,0.9-1.3,1.6-2.3,2.2c-1,0.6-2.2,0.9-3.5,0.9c-1.4,0-2.6-0.3-3.7-1s-2-1.6-2.6-2.8
			c-0.6-1.2-1-2.6-1-4.1C476,796.1,476.3,794.7,476.9,793.5z M488.3,794.7c-0.5-0.9-1.1-1.5-1.9-2c-0.8-0.5-1.7-0.7-2.6-0.7
			s-1.8,0.2-2.6,0.7s-1.4,1.1-1.9,2s-0.7,1.9-0.7,3c0,1.2,0.2,2.2,0.7,3.1s1.1,1.5,1.9,2s1.7,0.7,2.6,0.7s1.8-0.2,2.6-0.7
			c0.8-0.5,1.4-1.1,1.9-2c0.5-0.9,0.7-1.9,0.7-3C489,796.5,488.7,795.5,488.3,794.7z"/>
		<path fill="#565656" d="M500.3,790.5c0.8-0.5,1.8-0.7,3-0.7v2.6h-0.7c-2.9,0-4.3,1.5-4.3,4.6v8.3h-2.5V790h2.5v2.5
			C498.8,791.7,499.5,791,500.3,790.5z"/>
		<path fill="#565656" d="M509.4,792.1v9c0,0.7,0.2,1.3,0.5,1.6c0.3,0.3,0.9,0.5,1.7,0.5h1.9v2.2h-2.3c-1.4,0-2.5-0.3-3.2-1
			c-0.7-0.7-1.1-1.7-1.1-3.2v-9h-2V790h2v-3.9h2.5v3.9h4v2.1H509.4z"/>
		<path fill="#565656" d="M518.8,805c-0.9-0.4-1.7-1-2.2-1.7c-0.5-0.7-0.8-1.5-0.9-2.5h2.6c0.1,0.8,0.4,1.4,1.1,1.9
			c0.6,0.5,1.5,0.7,2.5,0.7c1,0,1.7-0.2,2.3-0.6c0.6-0.4,0.8-1,0.8-1.6c0-0.7-0.3-1.2-0.9-1.5c-0.6-0.3-1.5-0.6-2.8-1
			c-1.1-0.3-2.1-0.6-2.8-0.9c-0.7-0.3-1.3-0.8-1.8-1.4c-0.5-0.6-0.8-1.4-0.8-2.4c0-0.8,0.2-1.5,0.7-2.2c0.5-0.7,1.1-1.2,2-1.6
			c0.9-0.4,1.8-0.6,2.9-0.6c1.7,0,3.1,0.4,4.1,1.3c1,0.9,1.6,2,1.7,3.5h-2.5c-0.1-0.8-0.4-1.4-1-1.9s-1.4-0.7-2.4-0.7
			c-0.9,0-1.6,0.2-2.2,0.6c-0.5,0.4-0.8,0.9-0.8,1.5c0,0.5,0.2,0.9,0.5,1.2c0.3,0.3,0.7,0.6,1.2,0.8c0.5,0.2,1.2,0.4,2.1,0.7
			c1.1,0.3,2,0.6,2.7,0.9c0.7,0.3,1.3,0.7,1.8,1.3c0.5,0.6,0.8,1.3,0.8,2.3c0,0.8-0.2,1.6-0.7,2.3c-0.5,0.7-1.1,1.2-2,1.6
			c-0.8,0.4-1.8,0.6-2.9,0.6C520.7,805.6,519.7,805.4,518.8,805z"/>
		<path fill="#565656" d="M559,790l-4.8,15.3h-2.6l-3.7-12.2l-3.7,12.2h-2.6l-4.8-15.3h2.6l3.5,12.9l3.8-12.9h2.6L553,803l3.5-12.9
			H559z"/>
		<path fill="#565656" d="M561.6,787.1c-0.3-0.3-0.5-0.7-0.5-1.2c0-0.5,0.2-0.9,0.5-1.2s0.7-0.5,1.2-0.5c0.5,0,0.9,0.2,1.2,0.5
			c0.3,0.3,0.5,0.7,0.5,1.2c0,0.5-0.2,0.9-0.5,1.2c-0.3,0.3-0.7,0.5-1.2,0.5C562.4,787.6,562,787.4,561.6,787.1z M564.1,790v15.3
			h-2.5V790H564.1z"/>
		<path fill="#565656" d="M571.5,792.1v9c0,0.7,0.2,1.3,0.5,1.6c0.3,0.3,0.9,0.5,1.7,0.5h1.9v2.2h-2.3c-1.4,0-2.5-0.3-3.2-1
			c-0.7-0.7-1.1-1.7-1.1-3.2v-9h-2V790h2v-3.9h2.5v3.9h4v2.1H571.5z"/>
		<path fill="#565656" d="M589.4,790.5c0.9,0.5,1.7,1.2,2.2,2.2c0.5,1,0.8,2.2,0.8,3.6v9h-2.5v-8.7c0-1.5-0.4-2.7-1.1-3.5
			c-0.8-0.8-1.8-1.2-3.1-1.2c-1.3,0-2.4,0.4-3.2,1.3c-0.8,0.8-1.2,2.1-1.2,3.7v8.5h-2.5v-20.7h2.5v7.6c0.5-0.8,1.2-1.4,2.1-1.8
			c0.9-0.4,1.9-0.6,3-0.6C587.4,789.8,588.4,790,589.4,790.5z"/>
		<path fill="#565656" d="M606.3,805c-0.9-0.4-1.7-1-2.2-1.7c-0.5-0.7-0.8-1.5-0.9-2.5h2.6c0.1,0.8,0.4,1.4,1.1,1.9
			c0.6,0.5,1.5,0.7,2.5,0.7c1,0,1.7-0.2,2.3-0.6c0.6-0.4,0.8-1,0.8-1.6c0-0.7-0.3-1.2-0.9-1.5c-0.6-0.3-1.5-0.6-2.8-1
			c-1.1-0.3-2.1-0.6-2.8-0.9c-0.7-0.3-1.3-0.8-1.8-1.4c-0.5-0.6-0.8-1.4-0.8-2.4c0-0.8,0.2-1.5,0.7-2.2c0.5-0.7,1.1-1.2,2-1.6
			c0.9-0.4,1.8-0.6,2.9-0.6c1.7,0,3.1,0.4,4.1,1.3c1,0.9,1.6,2,1.7,3.5h-2.5c-0.1-0.8-0.4-1.4-1-1.9S610,792,609,792
			c-0.9,0-1.6,0.2-2.2,0.6c-0.5,0.4-0.8,0.9-0.8,1.5c0,0.5,0.2,0.9,0.5,1.2c0.3,0.3,0.7,0.6,1.2,0.8c0.5,0.2,1.2,0.4,2.1,0.7
			c1.1,0.3,2,0.6,2.7,0.9c0.7,0.3,1.3,0.7,1.8,1.3c0.5,0.6,0.8,1.3,0.8,2.3c0,0.8-0.2,1.6-0.7,2.3c-0.5,0.7-1.1,1.2-2,1.6
			c-0.8,0.4-1.8,0.6-2.9,0.6C608.3,805.6,607.2,805.4,606.3,805z"/>
		<path fill="#565656" d="M640.3,790.5c0.9,0.5,1.7,1.2,2.2,2.2c0.5,1,0.8,2.2,0.8,3.6v9h-2.5v-8.7c0-1.5-0.4-2.7-1.1-3.5
			c-0.8-0.8-1.8-1.2-3.1-1.2c-1.3,0-2.4,0.4-3.2,1.3c-0.8,0.8-1.2,2.1-1.2,3.7v8.5h-2.5v-8.7c0-1.5-0.4-2.7-1.1-3.5
			c-0.8-0.8-1.8-1.2-3.1-1.2c-1.3,0-2.4,0.4-3.2,1.3s-1.2,2.1-1.2,3.7v8.5h-2.5V790h2.5v2.2c0.5-0.8,1.2-1.4,2-1.8
			c0.8-0.4,1.8-0.6,2.8-0.6c1.3,0,2.4,0.3,3.4,0.9c1,0.6,1.7,1.4,2.2,2.5c0.4-1.1,1.1-1.9,2.1-2.5c1-0.6,2.1-0.9,3.3-0.9
			C638.3,789.8,639.3,790,640.3,790.5z"/>
		<path fill="#565656" d="M647.5,793.5c0.6-1.2,1.5-2.1,2.6-2.8c1.1-0.7,2.3-1,3.7-1c1.3,0,2.5,0.3,3.5,0.9c1,0.6,1.7,1.3,2.2,2.2
			V790h2.6v15.3h-2.6v-2.9c-0.5,0.9-1.3,1.6-2.3,2.2c-1,0.6-2.2,0.9-3.5,0.9c-1.4,0-2.6-0.3-3.7-1s-2-1.6-2.6-2.8
			c-0.6-1.2-1-2.6-1-4.1C646.5,796.1,646.8,794.7,647.5,793.5z M658.8,794.7c-0.5-0.9-1.1-1.5-1.9-2c-0.8-0.5-1.7-0.7-2.6-0.7
			s-1.8,0.2-2.6,0.7s-1.4,1.1-1.9,2s-0.7,1.9-0.7,3c0,1.2,0.2,2.2,0.7,3.1s1.1,1.5,1.9,2s1.7,0.7,2.6,0.7s1.8-0.2,2.6-0.7
			c0.8-0.5,1.4-1.1,1.9-2c0.5-0.9,0.7-1.9,0.7-3C659.5,796.5,659.3,795.5,658.8,794.7z"/>
		<path fill="#565656" d="M670.9,790.5c0.8-0.5,1.8-0.7,3-0.7v2.6h-0.7c-2.9,0-4.3,1.5-4.3,4.6v8.3h-2.5V790h2.5v2.5
			C669.4,791.7,670,791,670.9,790.5z"/>
		<path fill="#565656" d="M679.9,792.1v9c0,0.7,0.2,1.3,0.5,1.6c0.3,0.3,0.9,0.5,1.7,0.5h1.9v2.2h-2.3c-1.4,0-2.5-0.3-3.2-1
			c-0.7-0.7-1.1-1.7-1.1-3.2v-9h-2V790h2v-3.9h2.5v3.9h4v2.1H679.9z"/>
		<path fill="#565656" d="M694.5,793.5c0.6-1.2,1.5-2.1,2.6-2.8c1.1-0.7,2.4-1,3.9-1c1.9,0,3.4,0.5,4.7,1.4c1.2,0.9,2,2.2,2.4,3.8
			h-2.7c-0.3-0.9-0.8-1.7-1.5-2.2c-0.8-0.5-1.7-0.8-2.8-0.8c-1.5,0-2.6,0.5-3.5,1.5c-0.9,1-1.3,2.4-1.3,4.2c0,1.8,0.4,3.3,1.3,4.3
			c0.9,1,2.1,1.5,3.5,1.5c1.1,0,2.1-0.3,2.8-0.8c0.7-0.5,1.3-1.3,1.5-2.2h2.7c-0.4,1.6-1.2,2.8-2.5,3.8c-1.2,0.9-2.8,1.4-4.6,1.4
			c-1.5,0-2.7-0.3-3.9-1c-1.1-0.7-2-1.6-2.6-2.8c-0.6-1.2-1-2.6-1-4.2C693.6,796.1,693.9,794.7,694.5,793.5z"/>
		<path fill="#565656" d="M722.3,790.5c0.9,0.5,1.7,1.2,2.2,2.2c0.5,1,0.8,2.2,0.8,3.6v9h-2.5v-8.7c0-1.5-0.4-2.7-1.1-3.5
			c-0.8-0.8-1.8-1.2-3.1-1.2c-1.3,0-2.4,0.4-3.2,1.3c-0.8,0.8-1.2,2.1-1.2,3.7v8.5h-2.5v-20.7h2.5v7.6c0.5-0.8,1.2-1.4,2.1-1.8
			c0.9-0.4,1.9-0.6,3-0.6C720.3,789.8,721.3,790,722.3,790.5z"/>
		<path fill="#565656" d="M732.2,804.7c-1.2-0.7-2.1-1.6-2.7-2.8c-0.7-1.2-1-2.6-1-4.2c0-1.6,0.3-3,1-4.2c0.7-1.2,1.6-2.1,2.8-2.8
			c1.2-0.6,2.5-1,3.9-1s2.8,0.3,3.9,1c1.2,0.6,2.1,1.6,2.8,2.8c0.7,1.2,1,2.6,1,4.2c0,1.6-0.3,3-1,4.2s-1.6,2.1-2.8,2.8
			c-1.2,0.7-2.5,1-4,1C734.7,805.6,733.4,805.3,732.2,804.7z M738.7,802.8c0.8-0.4,1.5-1.1,1.9-1.9c0.5-0.9,0.7-1.9,0.7-3.1
			c0-1.2-0.2-2.3-0.7-3.1s-1.1-1.5-1.9-1.9c-0.8-0.4-1.6-0.6-2.5-0.6c-0.9,0-1.8,0.2-2.6,0.6c-0.8,0.4-1.4,1.1-1.9,1.9
			s-0.7,1.9-0.7,3.1c0,1.3,0.2,2.3,0.7,3.2c0.5,0.9,1.1,1.5,1.8,1.9c0.8,0.4,1.6,0.6,2.5,0.6C737,803.4,737.9,803.2,738.7,802.8z"/>
		<path fill="#565656" d="M747.4,787.1c-0.3-0.3-0.5-0.7-0.5-1.2c0-0.5,0.2-0.9,0.5-1.2s0.7-0.5,1.2-0.5c0.5,0,0.9,0.2,1.2,0.5
			c0.3,0.3,0.5,0.7,0.5,1.2c0,0.5-0.2,0.9-0.5,1.2c-0.3,0.3-0.7,0.5-1.2,0.5C748.2,787.6,747.8,787.4,747.4,787.1z M749.9,790v15.3
			h-2.5V790H749.9z"/>
		<path fill="#565656" d="M754.2,793.5c0.6-1.2,1.5-2.1,2.6-2.8c1.1-0.7,2.4-1,3.9-1c1.9,0,3.4,0.5,4.7,1.4c1.2,0.9,2,2.2,2.4,3.8
			h-2.7c-0.3-0.9-0.8-1.7-1.5-2.2c-0.8-0.5-1.7-0.8-2.8-0.8c-1.5,0-2.6,0.5-3.5,1.5c-0.9,1-1.3,2.4-1.3,4.2c0,1.8,0.4,3.3,1.3,4.3
			c0.9,1,2.1,1.5,3.5,1.5c1.1,0,2.1-0.3,2.8-0.8c0.7-0.5,1.3-1.3,1.5-2.2h2.7c-0.4,1.6-1.2,2.8-2.5,3.8c-1.2,0.9-2.8,1.4-4.6,1.4
			c-1.5,0-2.7-0.3-3.9-1c-1.1-0.7-2-1.6-2.6-2.8c-0.6-1.2-1-2.6-1-4.2C753.3,796.1,753.6,794.7,754.2,793.5z"/>
		<path fill="#565656" d="M785.1,798.7h-12.3c0.1,1.5,0.6,2.7,1.6,3.5c0.9,0.8,2.1,1.3,3.4,1.3c1.1,0,2-0.3,2.8-0.8s1.3-1.2,1.6-2.1
			h2.7c-0.4,1.5-1.2,2.7-2.5,3.6c-1.2,0.9-2.8,1.4-4.6,1.4c-1.5,0-2.8-0.3-3.9-1c-1.1-0.7-2-1.6-2.7-2.8s-1-2.6-1-4.2
			c0-1.6,0.3-3,1-4.2c0.6-1.2,1.5-2.1,2.7-2.8c1.1-0.6,2.5-1,4-1c1.5,0,2.7,0.3,3.9,1s2,1.5,2.6,2.6c0.6,1.1,0.9,2.4,0.9,3.8
			C785.2,797.6,785.2,798.1,785.1,798.7z M782,794.1c-0.4-0.7-1-1.2-1.8-1.6c-0.7-0.4-1.6-0.5-2.5-0.5c-1.3,0-2.4,0.4-3.3,1.2
			s-1.4,2-1.6,3.4h9.7C782.6,795.6,782.4,794.8,782,794.1z"/>
		<path fill="#565656" d="M790.9,805c-0.9-0.4-1.7-1-2.2-1.7c-0.5-0.7-0.8-1.5-0.9-2.5h2.6c0.1,0.8,0.4,1.4,1.1,1.9
			c0.6,0.5,1.5,0.7,2.5,0.7c1,0,1.7-0.2,2.3-0.6c0.6-0.4,0.8-1,0.8-1.6c0-0.7-0.3-1.2-0.9-1.5c-0.6-0.3-1.5-0.6-2.8-1
			c-1.1-0.3-2.1-0.6-2.8-0.9c-0.7-0.3-1.3-0.8-1.8-1.4c-0.5-0.6-0.8-1.4-0.8-2.4c0-0.8,0.2-1.5,0.7-2.2c0.5-0.7,1.1-1.2,2-1.6
			c0.9-0.4,1.8-0.6,2.9-0.6c1.7,0,3.1,0.4,4.1,1.3c1,0.9,1.6,2,1.7,3.5h-2.5c-0.1-0.8-0.4-1.4-1-1.9s-1.4-0.7-2.4-0.7
			c-0.9,0-1.6,0.2-2.2,0.6c-0.5,0.4-0.8,0.9-0.8,1.5c0,0.5,0.2,0.9,0.5,1.2c0.3,0.3,0.7,0.6,1.2,0.8c0.5,0.2,1.2,0.4,2.1,0.7
			c1.1,0.3,2,0.6,2.7,0.9c0.7,0.3,1.3,0.7,1.8,1.3c0.5,0.6,0.8,1.3,0.8,2.3c0,0.8-0.2,1.6-0.7,2.3c-0.5,0.7-1.1,1.2-2,1.6
			c-0.8,0.4-1.8,0.6-2.9,0.6C792.8,805.6,791.8,805.4,790.9,805z"/>
	</g>
	<g>
		<rect x="183.2" y="794.6" fill="#2B2B2B" width="71.4" height="3.9"/>
	</g>
	<g>
		<rect x="826.8" y="794.6" fill="#2B2B2B" width="71.4" height="3.9"/>
	</g>
</g>
</svg>
